
    <svg class="Path_203" viewBox="0 0 40 40">
        <path id="Path_203" d="M 0 0 L 40 0 L 40 40 L 0 40 L 0 0 Z">
        </path>
    </svg>
    <svg class="Path_204" viewBox="1.779 3.688 36.384 32.574">
        <path id="Path_204" d="M 38.16122055053711 7.555495738983154 C 36.79852294921875 8.219194412231445 35.35345077514648 8.655078887939453 33.87381362915039 8.848720550537109 C 35.43340301513672 7.821672916412354 36.60066223144531 6.205297946929932 37.15808868408203 4.300806522369385 C 35.6944465637207 5.259917736053467 34.08979415893555 5.932081699371338 32.41731643676758 6.295679569244385 C 30.10734939575195 3.574239730834961 26.42401885986328 2.903589725494385 23.44138145446777 4.661364078521729 C 20.45874404907227 6.419140338897705 18.92258834838867 10.16582107543945 19.69790840148926 13.79168319702148 C 13.69523525238037 13.46040344238281 8.10255241394043 10.33847999572754 4.311819553375244 5.202922344207764 C 3.648343086242676 6.457725048065186 3.299682140350342 7.884158611297607 3.301546096801758 9.336135864257813 C 3.301546096801758 12.18595504760742 4.618824005126953 14.70362281799316 6.621515274047852 16.17766571044922 C 5.436338901519775 16.1365795135498 4.277247905731201 15.78415679931641 3.240859985351563 15.14976692199707 L 3.240858554840088 15.25196647644043 C 3.24085807800293 19.16342163085938 5.744659423828125 22.53481292724609 9.227777481079102 23.31169700622559 C 8.128079414367676 23.63984489440918 6.975011825561523 23.6883487701416 5.855781555175781 23.45354270935059 C 6.832365989685059 26.80292892456055 9.635283470153809 29.09770584106445 12.82949924468994 29.16300582885742 C 9.70219898223877 31.8674201965332 5.726800918579102 33.09202194213867 1.779000401496887 32.56706237792969 C 5.19124698638916 34.98337554931641 9.163425445556641 36.26617050170898 13.2203950881958 36.26199340820313 C 26.95185852050781 36.26199722290039 34.4610595703125 23.73655891418457 34.4610595703125 12.87384414672852 C 34.4610595703125 12.52007293701172 34.45213317871094 12.1623706817627 34.4378547668457 11.81253242492676 C 35.89946746826172 10.64934730529785 37.16093826293945 9.208423614501953 38.16299819946289 7.557458400726318 Z">
        </path>
    </svg>
